<?xml version="1.0" encoding="UTF-8"?>
<!DOCTYPE svg PUBLIC "-//W3C//DTD SVG 1.1//EN" "http://www.w3.org/Graphics/SVG/1.1/DTD/svg11.dtd">
<svg xmlns="http://www.w3.org/2000/svg" version="1.1" width="80px" height="80px" style="shape-rendering:geometricPrecision; text-rendering:geometricPrecision; image-rendering:optimizeQuality; fill-rule:evenodd; clip-rule:evenodd" xmlns:xlink="http://www.w3.org/1999/xlink">
<g><path style="opacity:0.933" fill="#6a7c92" d="M 42.5,17.5 C 42.1667,17.5 41.8333,17.5 41.5,17.5C 41.5,15.8333 41.5,14.1667 41.5,12.5C 39.8333,12.5 38.1667,12.5 36.5,12.5C 36.5,14.1667 36.5,15.8333 36.5,17.5C 36.1667,17.5 35.8333,17.5 35.5,17.5C 34.1763,12.9687 33.6763,8.30206 34,3.5C 37.3333,0.833333 40.6667,0.833333 44,3.5C 44.3237,8.30206 43.8237,12.9687 42.5,17.5 Z"/></g>
<g><path style="opacity:1" fill="#acbdd0" d="M 36.5,2.5 C 43.2886,2.25823 44.9552,4.9249 41.5,10.5C 37.6077,12.0513 35.2743,10.718 34.5,6.5C 34.7517,4.92714 35.4183,3.5938 36.5,2.5 Z"/></g>
<g><path style="opacity:1" fill="#afc0d3" d="M 41.5,17.5 C 39.8333,17.5 38.1667,17.5 36.5,17.5C 36.5,15.8333 36.5,14.1667 36.5,12.5C 38.1667,12.5 39.8333,12.5 41.5,12.5C 41.5,14.1667 41.5,15.8333 41.5,17.5 Z"/></g>
<g><path style="opacity:0.998" fill="#4f7bb5" d="M 35.5,17.5 C 35.8333,17.5 36.1667,17.5 36.5,17.5C 38.1667,17.5 39.8333,17.5 41.5,17.5C 41.8333,17.5 42.1667,17.5 42.5,17.5C 51.8333,17.5 61.1667,17.5 70.5,17.5C 70.5,22.1667 70.5,26.8333 70.5,31.5C 70.5,31.8333 70.5,32.1667 70.5,32.5C 70.5,38.1667 70.5,43.8333 70.5,49.5C 70.5,49.8333 70.5,50.1667 70.5,50.5C 70.5,55.1667 70.5,59.8333 70.5,64.5C 56.8293,64.3334 43.1626,64.5001 29.5,65C 25.6667,68.8333 21.8333,72.6667 18,76.5C 17.5012,72.5138 17.3345,68.5138 17.5,64.5C 14.1667,64.5 10.8333,64.5 7.5,64.5C 7.5,59.8333 7.5,55.1667 7.5,50.5C 7.5,50.1667 7.5,49.8333 7.5,49.5C 7.5,43.8333 7.5,38.1667 7.5,32.5C 7.5,32.1667 7.5,31.8333 7.5,31.5C 7.5,26.8333 7.5,22.1667 7.5,17.5C 16.8333,17.5 26.1667,17.5 35.5,17.5 Z"/></g>
<g><path style="opacity:1" fill="#8bb7f0" d="M 8.5,18.5 C 28.8333,18.5 49.1667,18.5 69.5,18.5C 69.5,33.5 69.5,48.5 69.5,63.5C 55.496,63.3334 41.496,63.5001 27.5,64C 24.6667,66.8333 21.8333,69.6667 19,72.5C 18.502,69.5184 18.3354,66.5184 18.5,63.5C 15.1667,63.5 11.8333,63.5 8.5,63.5C 8.5,48.5 8.5,33.5 8.5,18.5 Z"/></g>
<g><path style="opacity:1" fill="#f6f9fd" d="M 23.5,31.5 C 30.4863,31.331 32.153,34.1643 28.5,40C 21.4159,40.475 19.7492,37.6417 23.5,31.5 Z"/></g>
<g><path style="opacity:1" fill="#f6f9fd" d="M 49.5,31.5 C 56.4863,31.331 58.153,34.1643 54.5,40C 47.4159,40.475 45.7492,37.6417 49.5,31.5 Z"/></g>
<g><path style="opacity:1" fill="#afc0d3" d="M 7.5,32.5 C 7.5,38.1667 7.5,43.8333 7.5,49.5C 5.60963,49.7035 4.10963,49.0368 3,47.5C 2.33333,43.1667 2.33333,38.8333 3,34.5C 4.10963,32.9632 5.60963,32.2965 7.5,32.5 Z"/></g>
<g><path style="opacity:1" fill="#afc0d3" d="M 70.5,32.5 C 72.3904,32.2965 73.8904,32.9632 75,34.5C 75.6667,38.8333 75.6667,43.1667 75,47.5C 73.8904,49.0368 72.3904,49.7035 70.5,49.5C 70.5,43.8333 70.5,38.1667 70.5,32.5 Z"/></g>
<g><path style="opacity:0.999" fill="#687b91" d="M 7.5,31.5 C 7.5,31.8333 7.5,32.1667 7.5,32.5C 5.60963,32.2965 4.10963,32.9632 3,34.5C 2.33333,38.8333 2.33333,43.1667 3,47.5C 4.10963,49.0368 5.60963,49.7035 7.5,49.5C 7.5,49.8333 7.5,50.1667 7.5,50.5C 5.5328,50.7394 3.69946,50.4061 2,49.5C 1.33333,43.8333 1.33333,38.1667 2,32.5C 3.69946,31.5939 5.5328,31.2606 7.5,31.5 Z"/></g>
<g><path style="opacity:0.999" fill="#697a90" d="M 70.5,32.5 C 70.5,32.1667 70.5,31.8333 70.5,31.5C 72.4672,31.2606 74.3005,31.5939 76,32.5C 76.6667,38.1667 76.6667,43.8333 76,49.5C 74.3005,50.4061 72.4672,50.7394 70.5,50.5C 70.5,50.1667 70.5,49.8333 70.5,49.5C 72.3904,49.7035 73.8904,49.0368 75,47.5C 75.6667,43.1667 75.6667,38.8333 75,34.5C 73.8904,32.9632 72.3904,32.2965 70.5,32.5 Z"/></g>
<g><path style="opacity:1" fill="#f8fafe" d="M 32.5,50.5 C 36.6463,49.353 40.9796,49.1864 45.5,50C 41.3307,55.8052 36.9973,55.9719 32.5,50.5 Z"/></g>
</svg>
